<mxfile host="65bd71144e">
    <diagram id="A9qg82AuoLQeKydgUByE" name="第 1 页">
        <mxGraphModel dx="632" dy="364" grid="1" gridSize="10" guides="1" tooltips="1" connect="1" arrows="1" fold="1" page="1" pageScale="1" pageWidth="827" pageHeight="1169" math="0" shadow="0">
            <root>
                <mxCell id="0"/>
                <mxCell id="1" parent="0"/>
                <mxCell id="2" value="浏览器" style="rounded=0;whiteSpace=wrap;html=1;fillColor=#1ba1e2;fontColor=#ffffff;strokeColor=#006EAF;fontSize=14;" parent="1" vertex="1">
                    <mxGeometry x="80" y="80" width="120" height="140" as="geometry"/>
                </mxCell>
                <mxCell id="3" value="服务器" style="rounded=0;whiteSpace=wrap;html=1;fillColor=#1ba1e2;fontColor=#ffffff;strokeColor=#006EAF;fontSize=14;" parent="1" vertex="1">
                    <mxGeometry x="470" y="80" width="120" height="140" as="geometry"/>
                </mxCell>
                <mxCell id="4" value="建立TCP连接" style="rounded=0;whiteSpace=wrap;html=1;fillColor=#d80073;fontColor=#ffffff;strokeColor=#A50040;fontSize=14;" parent="1" vertex="1">
                    <mxGeometry x="270" y="30" width="120" height="30" as="geometry"/>
                </mxCell>
                <mxCell id="5" value="HTTP请求1" style="rounded=0;whiteSpace=wrap;html=1;fillColor=#1ba1e2;strokeColor=#006EAF;fontColor=#ffffff;fontSize=14;" parent="1" vertex="1">
                    <mxGeometry x="270" y="60" width="120" height="30" as="geometry"/>
                </mxCell>
                <mxCell id="6" value="HTTP响应1" style="rounded=0;whiteSpace=wrap;html=1;fillColor=#1ba1e2;fontColor=#ffffff;strokeColor=#006EAF;fontSize=14;" parent="1" vertex="1">
                    <mxGeometry x="270" y="90" width="120" height="30" as="geometry"/>
                </mxCell>
                <mxCell id="15" value="断开TCP连接" style="rounded=0;whiteSpace=wrap;html=1;fillColor=#d80073;fontColor=#ffffff;strokeColor=#A50040;fontSize=14;" parent="1" vertex="1">
                    <mxGeometry x="270" y="240" width="120" height="30" as="geometry"/>
                </mxCell>
                <mxCell id="16" value="HTTP请求2" style="rounded=0;whiteSpace=wrap;html=1;fillColor=#1ba1e2;fontColor=#ffffff;strokeColor=#006EAF;fontSize=14;" vertex="1" parent="1">
                    <mxGeometry x="270" y="120" width="120" height="30" as="geometry"/>
                </mxCell>
                <mxCell id="17" value="HTTP响应2" style="rounded=0;whiteSpace=wrap;html=1;fillColor=#1ba1e2;fontColor=#ffffff;strokeColor=#006EAF;fontSize=14;" vertex="1" parent="1">
                    <mxGeometry x="270" y="150" width="120" height="30" as="geometry"/>
                </mxCell>
                <mxCell id="18" value="HTTP请求3" style="rounded=0;whiteSpace=wrap;html=1;fillColor=#1ba1e2;fontColor=#ffffff;strokeColor=#006EAF;fontSize=14;" vertex="1" parent="1">
                    <mxGeometry x="270" y="180" width="120" height="30" as="geometry"/>
                </mxCell>
                <mxCell id="19" value="HTTP响应3" style="rounded=0;whiteSpace=wrap;html=1;fillColor=#1ba1e2;fontColor=#ffffff;strokeColor=#006EAF;fontSize=14;" vertex="1" parent="1">
                    <mxGeometry x="270" y="210" width="120" height="30" as="geometry"/>
                </mxCell>
            </root>
        </mxGraphModel>
    </diagram>
</mxfile>